<svg width="30" height="30" viewBox="0 0 30 30" fill="none" xmlns="http://www.w3.org/2000/svg">
<path fill-rule="evenodd" clip-rule="evenodd" d="M15 8.75C16.0355 8.75 16.875 7.91054 16.875 6.875C16.875 5.83946 16.0355 5 15 5C13.9645 5 13.125 5.83946 13.125 6.875C13.125 7.91054 13.9645 8.75 15 8.75ZM13.75 11.25C13.0596 11.25 12.5 11.8096 12.5 12.5C12.5 13.1904 13.0596 13.75 13.75 13.75V23.75C13.75 24.4404 14.3096 25 15 25C15.6904 25 16.25 24.4404 16.25 23.75V12.5C16.25 11.8096 15.6904 11.25 15 11.25H13.75Z" fill="#8576FF"/>
</svg>
