<svg width="29" height="32" viewBox="0 0 29 32" fill="none" xmlns="http://www.w3.org/2000/svg">
<path d="M24.1666 15.9998C24.1666 15.6462 24.0393 15.3071 23.8127 15.057C23.5861 14.807 23.2788 14.6665 22.9583 14.6665H13.7871L16.5662 11.6132C16.6789 11.4889 16.7683 11.3413 16.8292 11.1788C16.8902 11.0164 16.9216 10.8423 16.9216 10.6665C16.9216 10.4907 16.8902 10.3166 16.8292 10.1542C16.7683 9.99174 16.6789 9.84415 16.5662 9.71984C16.4536 9.59552 16.3198 9.4969 16.1726 9.42962C16.0254 9.36234 15.8676 9.32771 15.7083 9.32771C15.549 9.32771 15.3912 9.36234 15.244 9.42962C15.0968 9.4969 14.9631 9.59552 14.8504 9.71984L10.0171 15.0532C9.90706 15.18 9.82082 15.3295 9.76331 15.4932C9.64246 15.8178 9.64246 16.1819 9.76331 16.5065C9.82082 16.6702 9.90706 16.8197 10.0171 16.9465L14.8504 22.2798C14.9627 22.4048 15.0964 22.504 15.2436 22.5717C15.3909 22.6394 15.5488 22.6742 15.7083 22.6742C15.8678 22.6742 16.0258 22.6394 16.173 22.5717C16.3203 22.504 16.4539 22.4048 16.5662 22.2798C16.6795 22.1559 16.7694 22.0084 16.8307 21.8459C16.8921 21.6835 16.9237 21.5092 16.9237 21.3332C16.9237 21.1572 16.8921 20.9829 16.8307 20.8204C16.7694 20.6579 16.6795 20.5105 16.5662 20.3865L13.7871 17.3332H22.9583C23.2788 17.3332 23.5861 17.1927 23.8127 16.9426C24.0393 16.6926 24.1666 16.3535 24.1666 15.9998ZM20.5416 2.6665H8.45831C7.4969 2.6665 6.57487 3.08793 5.89505 3.83808C5.21523 4.58822 4.83331 5.60564 4.83331 6.6665V25.3332C4.83331 26.394 5.21523 27.4115 5.89505 28.1616C6.57487 28.9117 7.4969 29.3332 8.45831 29.3332H20.5416C21.5031 29.3332 22.4251 28.9117 23.1049 28.1616C23.7847 27.4115 24.1666 26.394 24.1666 25.3332V21.3332C24.1666 20.9795 24.0393 20.6404 23.8127 20.3904C23.5861 20.1403 23.2788 19.9998 22.9583 19.9998C22.6378 19.9998 22.3305 20.1403 22.1039 20.3904C21.8773 20.6404 21.75 20.9795 21.75 21.3332V25.3332C21.75 25.6868 21.6227 26.0259 21.3961 26.276C21.1695 26.526 20.8621 26.6665 20.5416 26.6665H8.45831C8.13784 26.6665 7.8305 26.526 7.60389 26.276C7.37729 26.0259 7.24998 25.6868 7.24998 25.3332V6.6665C7.24998 6.31288 7.37729 5.97374 7.60389 5.7237C7.8305 5.47365 8.13784 5.33317 8.45831 5.33317H20.5416C20.8621 5.33317 21.1695 5.47365 21.3961 5.7237C21.6227 5.97374 21.75 6.31288 21.75 6.6665V10.6665C21.75 11.0201 21.8773 11.3593 22.1039 11.6093C22.3305 11.8594 22.6378 11.9998 22.9583 11.9998C23.2788 11.9998 23.5861 11.8594 23.8127 11.6093C24.0393 11.3593 24.1666 11.0201 24.1666 10.6665V6.6665C24.1666 5.60564 23.7847 4.58822 23.1049 3.83808C22.4251 3.08793 21.5031 2.6665 20.5416 2.6665Z" fill="#000000"/>
</svg>
