<svg width="30" height="29" viewBox="0 0 30 29" fill="none" xmlns="http://www.w3.org/2000/svg">
<path d="M25 1.2085C27.0711 1.2085 28.75 2.83147 28.75 4.8335V9.66683C28.75 10.3342 28.1904 10.8752 27.5 10.8752C26.8096 10.8752 26.25 10.3342 26.25 9.66683V4.8335C26.25 4.16616 25.6904 3.62516 25 3.62516H20C19.3096 3.62516 18.75 3.08417 18.75 2.41683C18.75 1.74949 19.3096 1.2085 20 1.2085H25Z" fill="#8576FF"/>
<path d="M27.5 18.125C28.1904 18.125 28.75 18.666 28.75 19.3333V24.1667C28.75 26.1688 27.0711 27.7917 25 27.7917H20C19.3096 27.7917 18.75 27.2507 18.75 26.5833C18.75 25.916 19.3096 25.375 20 25.375H25C25.6904 25.375 26.25 24.834 26.25 24.1667V19.3333C26.25 18.666 26.8096 18.125 27.5 18.125Z" fill="#8576FF"/>
<path d="M5 25.375H10C10.6903 25.375 11.25 25.916 11.25 26.5833C11.25 27.2507 10.6903 27.7917 10 27.7917H5C2.92894 27.7917 1.25 26.1688 1.25 24.1667V19.3333C1.25 18.666 1.80965 18.125 2.5 18.125C3.19035 18.125 3.75 18.666 3.75 19.3333V24.1667C3.75 24.834 4.30965 25.375 5 25.375Z" fill="#8576FF"/>
<path d="M2.5 10.8752C1.80965 10.8752 1.25 10.3342 1.25 9.66683V4.8335C1.25 2.83147 2.92894 1.2085 5 1.2085H10C10.6903 1.2085 11.25 1.74949 11.25 2.41683C11.25 3.08417 10.6903 3.62516 10 3.62516H5C4.30965 3.62516 3.75 4.16616 3.75 4.8335V9.66683C3.75 10.3342 3.19035 10.8752 2.5 10.8752Z" fill="#8576FF"/>
<path fill-rule="evenodd" clip-rule="evenodd" d="M15 19.3332C17.7614 19.3332 20 17.1692 20 14.4998C20 11.8305 17.7614 9.6665 15 9.6665C12.2386 9.6665 10 11.8305 10 14.4998C10 17.1692 12.2386 19.3332 15 19.3332ZM15 16.9331C13.6099 16.9331 12.4829 15.8436 12.4829 14.4998C12.4829 13.156 13.6099 12.0666 15 12.0666C16.3901 12.0666 17.5171 13.156 17.5171 14.4998C17.5171 15.8436 16.3901 16.9331 15 16.9331Z" fill="#8576FF"/>
</svg>
