<svg width="28" height="28" viewBox="0 0 28 28" fill="none" xmlns="http://www.w3.org/2000/svg">
<g clip-path="url(#clip0_62_863)">
<path d="M8.33851 1.37919C5.95977 2.75244 4.25807 4.97014 3.54722 7.62325C2.83622 10.2764 3.20124 13.0477 4.57449 15.4264C6.40615 18.5987 9.82144 20.5695 13.488 20.5695C14.6456 20.5695 15.7943 20.3702 16.8833 19.9878L21.5091 28L24.8074 26.0957L20.1824 18.0849C21.7447 16.7482 22.8694 14.9753 23.4132 12.9462C24.124 10.2931 23.759 7.52194 22.3857 5.14305C20.5542 1.97075 17.1388 0 13.4724 0C11.6766 0 9.90127 0.476843 8.33851 1.37919ZM19.0874 7.04738C19.9522 8.54509 20.1819 10.2901 19.7343 11.9605C19.2867 13.631 18.2153 15.0273 16.7175 15.892C15.7331 16.4604 14.6162 16.7608 13.488 16.7608C11.1779 16.7608 9.02635 15.5198 7.87294 13.5221C7.00822 12.0244 6.77848 10.2796 7.22623 8.60893C7.67382 6.93845 8.74527 5.5422 10.243 4.67733C11.2273 4.10908 12.3441 3.80865 13.4724 3.80865C15.7826 3.80865 17.934 5.04966 19.0874 7.04738Z" fill="#8576FF"/>
</g>
<defs>
<clipPath id="clip0_62_863">
<rect width="28" height="28" fill="white"/>
</clipPath>
</defs>
</svg>
