<svg width="40" height="35" viewBox="0 0 40 35" fill="none" xmlns="http://www.w3.org/2000/svg">
<g clip-path="url(#clip0_62_250)">
<path fill-rule="evenodd" clip-rule="evenodd" d="M10 10.8077C8.62 10.8077 7.5 9.83932 7.5 8.64615C7.5 7.45298 8.62 6.48462 10 6.48462C11.38 6.48462 12.5 7.45298 12.5 8.64615C12.5 9.83932 11.38 10.8077 10 10.8077ZM10 4.32308C7.23875 4.32308 5 6.25873 5 8.64615C5 11.0336 7.23875 12.9692 10 12.9692C12.7613 12.9692 15 11.0336 15 8.64615C15 6.25873 12.7613 4.32308 10 4.32308ZM37.5 18.5114L30 11.8885L17.5737 22.8161L12.5 18.3731L2.5 26.3027V4.32308C2.5 3.12991 3.62 2.16154 5 2.16154H35C36.38 2.16154 37.5 3.12991 37.5 4.32308V18.5114ZM37.5 30.2615C37.5 31.4547 36.38 32.4231 35 32.4231H28.54L19.33 24.3551L30 15.1297L37.5 21.6143V30.2615ZM5 32.4231C3.62 32.4231 2.5 31.4547 2.5 30.2615V29.2467L12.4313 21.5559L25.0013 32.4231H5ZM35 0H5C2.23875 0 0 1.93566 0 4.32308V30.2615C0 32.649 2.23875 34.5846 5 34.5846H35C37.7612 34.5846 40 32.649 40 30.2615V4.32308C40 1.93566 37.7612 0 35 0Z" fill="#0C1C3F"/>
</g>
<defs>
<clipPath id="clip0_62_250">
<rect width="40" height="34.5846" fill="white"/>
</clipPath>
</defs>
</svg>
