<svg width="105" height="87" viewBox="0 0 105 87" fill="none" xmlns="http://www.w3.org/2000/svg">
<path d="M99.5 43.2308C99.5 66.7645 77.4088 85.9615 50 85.9615C22.5912 85.9615 0.5 66.7645 0.5 43.2308C0.5 19.697 22.5912 0.5 50 0.5C77.4088 0.5 99.5 19.697 99.5 43.2308Z" fill="white" stroke="#D9D9D9"/>
<g clip-path="url(#clip0_105_222)">
<path fill-rule="evenodd" clip-rule="evenodd" d="M40 36.8077C38.62 36.8077 37.5 35.8393 37.5 34.6462C37.5 33.453 38.62 32.4846 40 32.4846C41.38 32.4846 42.5 33.453 42.5 34.6462C42.5 35.8393 41.38 36.8077 40 36.8077ZM40 30.3231C37.2387 30.3231 35 32.2587 35 34.6462C35 37.0336 37.2387 38.9692 40 38.9692C42.7613 38.9692 45 37.0336 45 34.6462C45 32.2587 42.7613 30.3231 40 30.3231ZM67.5 44.5114L60 37.8885L47.5737 48.8161L42.5 44.3731L32.5 52.3027V30.3231C32.5 29.1299 33.62 28.1615 35 28.1615H65C66.38 28.1615 67.5 29.1299 67.5 30.3231V44.5114ZM67.5 56.2615C67.5 57.4547 66.38 58.4231 65 58.4231H58.54L49.33 50.3551L60 41.1297L67.5 47.6143V56.2615ZM35 58.4231C33.62 58.4231 32.5 57.4547 32.5 56.2615V55.2467L42.4313 47.5559L55.0013 58.4231H35ZM65 26H35C32.2387 26 30 27.9357 30 30.3231V56.2615C30 58.649 32.2387 60.5846 35 60.5846H65C67.7612 60.5846 70 58.649 70 56.2615V30.3231C70 27.9357 67.7612 26 65 26Z" fill="#0C1C3F"/>
</g>
<rect x="76.5" y="59.5" width="28" height="24.0738" rx="9.5" fill="white" stroke="#D9D9D9"/>
<path d="M90.8334 65.4847C90.8334 65.0867 90.4603 64.7642 90 64.7642C89.5398 64.7642 89.1667 65.0867 89.1667 65.4847V71.2488H82.5C82.0398 71.2488 81.6667 71.5713 81.6667 71.9693C81.6667 72.3672 82.0398 72.6898 82.5 72.6898H89.1667V78.4539C89.1667 78.8518 89.5398 79.1744 90 79.1744C90.4603 79.1744 90.8334 78.8518 90.8334 78.4539V72.6898H97.5C97.9603 72.6898 98.3334 72.3672 98.3334 71.9693C98.3334 71.5713 97.9603 71.2488 97.5 71.2488H90.8334V65.4847Z" fill="#0C1F43"/>
<defs>
<clipPath id="clip0_105_222">
<rect width="40" height="34.5846" fill="white" transform="translate(30 26)"/>
</clipPath>
</defs>
</svg>
