<svg width="20" height="18" viewBox="0 0 20 18" fill="none" xmlns="http://www.w3.org/2000/svg">
<path d="M10.8334 2.48467C10.8334 2.08675 10.4603 1.76416 10 1.76416C9.53977 1.76416 9.16669 2.08675 9.16669 2.48467V8.24878H2.50002C2.03979 8.24878 1.66669 8.57135 1.66669 8.96929C1.66669 9.36723 2.03979 9.6898 2.50002 9.6898H9.16669V15.4539C9.16669 15.8518 9.53977 16.1744 10 16.1744C10.4603 16.1744 10.8334 15.8518 10.8334 15.4539V9.6898H17.5C17.9603 9.6898 18.3334 9.36723 18.3334 8.96929C18.3334 8.57135 17.9603 8.24878 17.5 8.24878H10.8334V2.48467Z" fill="#0C1F43"/>
</svg>
